<svg xmlns="http://www.w3.org/2000/svg" width="1280" height="640" viewBox="0 0 1280 640" role="img" aria-labelledby="title desc">
  <title id="title">DockTUI social preview</title>
  <desc id="desc">A GitHub social preview image for DockTUI.</desc>
  <rect width="1280" height="640" fill="#0f172a"/>
  <rect x="54" y="54" width="1172" height="532" rx="28" fill="#111827" stroke="#334155" stroke-width="2"/>
  <g transform="translate(118 142)">
    <rect x="0" y="0" width="190" height="190" rx="38" fill="#172033" stroke="#38bdf8" stroke-width="6"/>
    <rect x="48" y="66" width="94" height="66" rx="9" fill="#e5edf7"/>
    <rect x="58" y="77" width="17" height="33" rx="3" fill="#1f2937"/>
    <rect x="84" y="77" width="17" height="33" rx="3" fill="#1f2937"/>
    <rect x="110" y="77" width="17" height="33" rx="3" fill="#1f2937"/>
    <path d="M48 128h94" stroke="#64748b" stroke-width="8" stroke-linecap="round"/>
    <circle cx="30" cy="30" r="6" fill="#22c55e"/>
    <circle cx="52" cy="30" r="6" fill="#facc15"/>
    <circle cx="74" cy="30" r="6" fill="#ef4444"/>
  </g>
  <text x="360" y="228" font-family="Inter, Segoe UI, Arial, sans-serif" font-size="88" font-weight="850" fill="#f8fafc">DockTUI</text>
  <text x="366" y="296" font-family="Inter, Segoe UI, Arial, sans-serif" font-size="34" fill="#cbd5e1">Zero-dependency Docker dashboard for your terminal</text>
  <g font-family="Consolas, Menlo, monospace" font-size="24">
    <text x="368" y="372" fill="#67e8f9">Compose groups</text>
    <text x="604" y="372" fill="#86efac">follow logs</text>
    <text x="796" y="372" fill="#facc15">exec presets</text>
    <text x="1006" y="372" fill="#fda4af">safe prune</text>
  </g>
  <rect x="366" y="424" width="760" height="76" rx="10" fill="#020617" stroke="#334155"/>
  <text x="394" y="472" font-family="Consolas, Menlo, monospace" font-size="25" fill="#e2e8f0">$ pip install git+https://github.com/strmax195-hue/docktui.git</text>
</svg>
